<svg width="111" height="20" viewBox="0 0 111 20" fill="none" xmlns="http://www.w3.org/2000/svg">
<path d="M8.058 16H1.224V3.828H2.788V14.504H8.058V16ZM11.2718 4.797C11.2718 5.103 11.1641 5.36367 10.9488 5.579C10.7335 5.79433 10.4728 5.902 10.1668 5.902C9.8608 5.902 9.60013 5.79433 9.3848 5.579C9.16946 5.36367 9.0618 5.103 9.0618 4.797C9.0618 4.491 9.16946 4.23033 9.3848 4.015C9.60013 3.79967 9.8608 3.692 10.1668 3.692C10.4728 3.692 10.7335 3.79967 10.9488 4.015C11.1641 4.23033 11.2718 4.491 11.2718 4.797ZM10.9488 7.67V16H9.3848V7.67H10.9488ZM12.8141 3.828H14.3781V7.67L14.3101 8.826H14.3781C14.6161 8.418 14.9788 8.078 15.4661 7.806C15.9648 7.534 16.4805 7.398 17.0131 7.398C18.0331 7.398 18.8151 7.69267 19.3591 8.282C19.9145 8.86 20.1921 9.68733 20.1921 10.764V16H18.6281V11.07C18.6281 9.574 17.9651 8.826 16.6391 8.826C16.0045 8.826 15.4661 9.09233 15.0241 9.625C14.5935 10.1463 14.3781 10.7583 14.3781 11.461V16H12.8141V3.828ZM22.914 13.45C22.914 13.858 23.084 14.198 23.424 14.47C23.7753 14.742 24.1833 14.878 24.648 14.878C25.3053 14.878 25.889 14.6343 26.399 14.147C26.9203 13.6597 27.181 13.0873 27.181 12.43C26.6937 12.0447 26.0137 11.852 25.141 11.852C24.5063 11.852 23.9737 12.005 23.543 12.311C23.1237 12.617 22.914 12.9967 22.914 13.45ZM24.937 7.398C26.093 7.398 27.0053 7.70967 27.674 8.333C28.3427 8.945 28.677 9.78933 28.677 10.866V16H27.181V14.844H27.113C26.467 15.796 25.6057 16.272 24.529 16.272C23.611 16.272 22.8403 16 22.217 15.456C21.605 14.912 21.299 14.232 21.299 13.416C21.299 12.5547 21.622 11.869 22.268 11.359C22.9253 10.849 23.798 10.594 24.886 10.594C25.8153 10.594 26.5803 10.764 27.181 11.104V10.747C27.181 10.203 26.9657 9.744 26.535 9.37C26.1043 8.98467 25.6 8.792 25.022 8.792C24.1493 8.792 23.458 9.16033 22.948 9.897L21.571 9.03C22.3303 7.942 23.4523 7.398 24.937 7.398ZM33.403 16.136C32.723 16.136 32.1563 15.9263 31.703 15.507C31.261 15.0877 31.0343 14.504 31.023 13.756V9.098H29.561V7.67H31.023V5.12H32.587V7.67H34.627V9.098H32.587V13.246C32.587 13.8013 32.6947 14.181 32.91 14.385C33.1253 14.5777 33.369 14.674 33.641 14.674C33.7657 14.674 33.8847 14.6627 33.998 14.64C34.1227 14.606 34.236 14.5663 34.338 14.521L34.831 15.915C34.423 16.0623 33.947 16.136 33.403 16.136ZM41.3461 5.324V9.608H43.8621C44.4968 9.608 45.0351 9.404 45.4771 8.996C45.9191 8.57667 46.1401 8.061 46.1401 7.449C46.1401 6.88233 45.9305 6.38933 45.5111 5.97C45.1031 5.53933 44.5875 5.324 43.9641 5.324H41.3461ZM41.3461 16H39.7821V3.828H43.9301C44.9841 3.828 45.8795 4.17933 46.6161 4.882C47.3641 5.57333 47.7381 6.429 47.7381 7.449C47.7381 8.28767 47.4605 9.03567 46.9051 9.693C46.3611 10.339 45.6698 10.7527 44.8311 10.934L44.7971 10.985L48.2141 15.932V16H46.3611L43.0801 11.07H41.3461V16ZM52.7422 16.272C51.5182 16.272 50.5096 15.8527 49.7162 15.014C48.9229 14.1753 48.5262 13.1157 48.5262 11.835C48.5262 10.5657 48.9116 9.51167 49.6822 8.673C50.4529 7.823 51.4389 7.398 52.6402 7.398C53.8756 7.398 54.8559 7.80033 55.5812 8.605C56.3179 9.39833 56.6862 10.5147 56.6862 11.954L56.6692 12.124H50.1242C50.1469 12.94 50.4189 13.5973 50.9402 14.096C51.4616 14.5947 52.0849 14.844 52.8102 14.844C53.8076 14.844 54.5896 14.3453 55.1562 13.348L56.5502 14.028C56.1762 14.7307 55.6549 15.2803 54.9862 15.677C54.3289 16.0737 53.5809 16.272 52.7422 16.272ZM50.2432 10.832H55.0202C54.9749 10.254 54.7369 9.778 54.3062 9.404C53.8869 9.01867 53.3202 8.826 52.6062 8.826C52.0169 8.826 51.5069 9.00733 51.0762 9.37C50.6569 9.73267 50.3792 10.22 50.2432 10.832ZM64.4045 13.688C64.4045 14.4133 64.0872 15.0253 63.4525 15.524C62.8178 16.0227 62.0188 16.272 61.0555 16.272C60.2168 16.272 59.4802 16.0567 58.8455 15.626C58.2108 15.184 57.7575 14.606 57.4855 13.892L58.8795 13.297C59.0835 13.7957 59.3782 14.1867 59.7635 14.47C60.1602 14.742 60.5908 14.878 61.0555 14.878C61.5542 14.878 61.9678 14.7703 62.2965 14.555C62.6365 14.3397 62.8065 14.0847 62.8065 13.79C62.8065 13.2573 62.3985 12.8663 61.5825 12.617L60.1545 12.26C58.5338 11.852 57.7235 11.07 57.7235 9.914C57.7235 9.15467 58.0295 8.54833 58.6415 8.095C59.2648 7.63033 60.0582 7.398 61.0215 7.398C61.7582 7.398 62.4212 7.57367 63.0105 7.925C63.6112 8.27633 64.0305 8.74667 64.2685 9.336L62.8745 9.914C62.7158 9.56267 62.4552 9.29067 62.0925 9.098C61.7412 8.894 61.3445 8.792 60.9025 8.792C60.4945 8.792 60.1262 8.894 59.7975 9.098C59.4802 9.302 59.3215 9.55133 59.3215 9.846C59.3215 10.322 59.7692 10.662 60.6645 10.866L61.9225 11.189C63.5772 11.597 64.4045 12.43 64.4045 13.688ZM69.4188 16.272C68.1948 16.272 67.1862 15.8527 66.3928 15.014C65.5995 14.1753 65.2028 13.1157 65.2028 11.835C65.2028 10.5657 65.5882 9.51167 66.3588 8.673C67.1295 7.823 68.1155 7.398 69.3168 7.398C70.5522 7.398 71.5325 7.80033 72.2578 8.605C72.9945 9.39833 73.3628 10.5147 73.3628 11.954L73.3458 12.124H66.8008C66.8235 12.94 67.0955 13.5973 67.6168 14.096C68.1382 14.5947 68.7615 14.844 69.4868 14.844C70.4842 14.844 71.2662 14.3453 71.8328 13.348L73.2268 14.028C72.8528 14.7307 72.3315 15.2803 71.6628 15.677C71.0055 16.0737 70.2575 16.272 69.4188 16.272ZM66.9198 10.832H71.6968C71.6515 10.254 71.4135 9.778 70.9828 9.404C70.5635 9.01867 69.9968 8.826 69.2828 8.826C68.6935 8.826 68.1835 9.00733 67.7528 9.37C67.3335 9.73267 67.0558 10.22 66.9198 10.832ZM78.7031 14.844C79.4511 14.844 80.0801 14.5607 80.5901 13.994C81.1001 13.4387 81.3551 12.719 81.3551 11.835C81.3551 10.9623 81.1001 10.2427 80.5901 9.676C80.0801 9.10933 79.4511 8.826 78.7031 8.826C77.9438 8.826 77.3091 9.10933 76.7991 9.676C76.3004 10.2427 76.0511 10.9623 76.0511 11.835C76.0511 12.719 76.3004 13.4443 76.7991 14.011C77.3091 14.5663 77.9438 14.844 78.7031 14.844ZM78.9581 16.272C78.3461 16.272 77.7851 16.1417 77.2751 15.881C76.7764 15.6203 76.3911 15.2747 76.1191 14.844H76.0511L76.1191 16V19.672H74.5551V7.67H76.0511V8.826H76.1191C76.3911 8.39533 76.7764 8.04967 77.2751 7.789C77.7851 7.52833 78.3461 7.398 78.9581 7.398C80.0574 7.398 80.9868 7.82867 81.7461 8.69C82.5281 9.56267 82.9191 10.611 82.9191 11.835C82.9191 13.0703 82.5281 14.1187 81.7461 14.98C80.9868 15.8413 80.0574 16.272 78.9581 16.272Z" fill="#A9612E"/>
<path d="M91 10.25C90.5858 10.25 90.25 10.5858 90.25 11C90.25 11.4142 90.5858 11.75 91 11.75V10.25ZM107.53 11.5303C107.823 11.2374 107.823 10.7626 107.53 10.4697L102.757 5.6967C102.464 5.40381 101.99 5.40381 101.697 5.6967C101.404 5.98959 101.404 6.46447 101.697 6.75736L105.939 11L101.697 15.2426C101.404 15.5355 101.404 16.0104 101.697 16.3033C101.99 16.5962 102.464 16.5962 102.757 16.3033L107.53 11.5303ZM91 11.75H107V10.25H91V11.75Z" fill="#A9612E"/>
</svg>
