<svg width="130" height="40" viewBox="0 0 130 40" fill="none" xmlns="http://www.w3.org/2000/svg">
<path d="M51.3805 20.6271C50.5055 19.0133 47.1105 21.5976 45.5224 23.0915C42.6861 24.6247 38.1887 27.5173 42.89 26.822C48.7666 25.9529 52.5114 25.8349 53.0304 24.4507C53.5495 23.0665 52.4743 22.6444 51.3805 20.6271Z" fill="#D67D3E"/>
<path fill-rule="evenodd" clip-rule="evenodd" d="M22.264 38.7788C23.7644 39.5929 25.4468 40 27.311 40C29.1752 40 30.8575 39.5929 32.358 38.7788C33.8812 37.9647 35.0748 36.8017 35.9387 35.2898C36.8253 33.7547 37.2686 31.9869 37.2686 29.9866C37.2686 27.9862 36.8367 26.2301 35.9728 24.7182C35.1088 23.183 33.9267 22.0084 32.4262 21.1943C30.9257 20.3802 29.2434 19.9731 27.3792 19.9731C25.515 19.9731 23.8326 20.3802 22.3322 21.1943C20.8317 22.0084 19.6495 23.183 18.7856 24.7182C17.9217 26.2301 17.4898 27.9862 17.4898 29.9866C17.4898 32.0102 17.9104 33.7779 18.7515 35.2898C19.6154 36.8017 20.7862 37.9647 22.264 38.7788ZM30.1414 33.5802C29.3684 34.4176 28.425 34.8363 27.311 34.8363C26.197 34.8363 25.2649 34.4176 24.5147 33.5802C23.7872 32.7429 23.4234 31.545 23.4234 29.9866C23.4234 28.4049 23.7985 27.207 24.5488 26.3929C25.299 25.5555 26.2425 25.1368 27.3792 25.1368C28.4932 25.1368 29.4253 25.5555 30.1755 26.3929C30.9485 27.2302 31.335 28.4281 31.335 29.9866C31.335 31.545 30.9371 32.7429 30.1414 33.5802Z" fill="#470D21"/>
<path fill-rule="evenodd" clip-rule="evenodd" d="M43.977 38.7788C45.4775 39.5929 47.1598 40 49.024 40C50.8882 40 52.5706 39.5929 54.071 38.7788C55.5942 37.9647 56.7878 36.8017 57.6517 35.2898C58.5383 33.7547 58.9816 31.9869 58.9816 29.9866C58.9816 27.9862 58.5497 26.2301 57.6858 24.7182C56.8219 23.183 55.6397 22.0084 54.1392 21.1943C52.6388 20.3802 50.9564 19.9731 49.0922 19.9731C47.228 19.9731 45.5457 20.3802 44.0452 21.1943C42.5447 22.0084 41.3626 23.183 40.4986 24.7182C39.6347 26.2301 39.2028 27.9862 39.2028 29.9866C39.2028 32.0102 39.6234 33.7779 40.4646 35.2898C41.3285 36.8017 42.4993 37.9647 43.977 38.7788ZM51.8544 33.5802C51.0815 34.4176 50.138 34.8363 49.024 34.8363C47.91 34.8363 46.9779 34.4176 46.2277 33.5802C45.5002 32.7429 45.1364 31.545 45.1364 29.9866C45.1364 28.4049 45.5116 27.207 46.2618 26.3929C47.012 25.5555 47.9555 25.1368 49.0922 25.1368C50.2062 25.1368 51.1383 25.5555 51.8885 26.3929C52.6615 27.2302 53.048 28.4281 53.048 29.9866C53.048 31.545 52.6501 32.7429 51.8544 33.5802Z" fill="#470D21"/>
<path fill-rule="evenodd" clip-rule="evenodd" d="M62.0071 24.6833C61.2796 26.1952 60.9158 27.9513 60.9158 29.9517C60.9158 31.952 61.2796 33.7198 62.0071 35.2549C62.7573 36.7669 63.769 37.9415 65.0421 38.7788C66.3152 39.5929 67.7361 40 69.3048 40C70.6461 40 71.8169 39.7209 72.8172 39.1626C73.8403 38.6044 74.6246 37.8601 75.1702 36.9297V39.7209H81.0016V13.9022H75.1702V22.9388C74.5791 22.0316 73.7607 21.3106 72.7149 20.7756C71.6919 20.2406 70.5552 19.9731 69.3048 19.9731C67.7361 19.9731 66.3152 20.3802 65.0421 21.1943C63.769 22.0084 62.7573 23.1714 62.0071 24.6833ZM73.9426 26.4627C74.761 27.3233 75.1702 28.4979 75.1702 29.9866C75.1702 31.4752 74.761 32.6498 73.9426 33.5105C73.1469 34.3711 72.1693 34.8014 71.0098 34.8014C69.8504 34.8014 68.8615 34.3711 68.043 33.5105C67.2473 32.6266 66.8495 31.4403 66.8495 29.9517C66.8495 28.463 67.2473 27.3 68.043 26.4627C68.8615 25.602 69.8504 25.1717 71.0098 25.1717C72.1693 25.1717 73.1469 25.602 73.9426 26.4627Z" fill="#470D21"/>
<path d="M85.6295 17.3215C86.2888 17.9262 87.13 18.2286 88.153 18.2286C89.1533 18.2286 89.9718 17.9262 90.6083 17.3215C91.2676 16.6934 91.5973 15.9259 91.5973 15.0187C91.5973 14.0883 91.2676 13.3207 90.6083 12.716C89.9718 12.088 89.1533 11.7739 88.153 11.7739C87.13 11.7739 86.2888 12.088 85.6295 12.716C84.9929 13.3207 84.6747 14.0883 84.6747 15.0187C84.6747 15.9259 84.9929 16.6934 85.6295 17.3215Z" fill="#470D21"/>
<path fill-rule="evenodd" clip-rule="evenodd" d="M113.113 31.417C113.181 30.8123 113.215 30.2308 113.215 29.6725C113.215 27.7187 112.806 26.0091 111.987 24.5437C111.192 23.0783 110.078 21.9502 108.645 21.1594C107.213 20.3685 105.576 19.9731 103.735 19.9731C101.848 19.9731 100.177 20.3802 98.7218 21.1943C97.2668 22.0084 96.1301 23.1714 95.3116 24.6833C94.5159 26.1952 94.1181 27.9629 94.1181 29.9866C94.1181 32.0102 94.5273 33.7779 95.3457 35.2898C96.1642 36.8017 97.3009 37.9647 98.7559 38.7788C100.211 39.5929 101.87 40 103.735 40C105.281 40 106.679 39.7092 107.929 39.1277C109.18 38.5462 110.214 37.7438 111.032 36.7203C111.874 35.6969 112.453 34.5455 112.772 33.2662H106.565C105.997 34.5223 104.985 35.1503 103.53 35.1503C102.553 35.1503 101.723 34.8363 101.041 34.2083C100.381 33.557 100.006 32.6266 99.9153 31.417H113.113ZM106.224 25.6602C106.906 26.2649 107.247 27.0791 107.247 28.1025H99.9494C100.109 27.0325 100.518 26.2068 101.177 25.6253C101.859 25.0438 102.689 24.753 103.667 24.753C104.69 24.753 105.542 25.0554 106.224 25.6602Z" fill="#470D21"/>
<path d="M123.146 25.1717L115.234 34.9758V39.7209H130V34.8014H121.747L129.829 24.9973V20.2522H115.302V25.1717H123.146Z" fill="#470D21"/>
<path d="M15.5844 20.008V15.2281H0V39.7209H5.83134V29.8121H13.1291V25.1717H5.83134V20.008H15.5844Z" fill="#470D21"/>
<path d="M91.0516 39.7209V20.2522H85.2203V39.7209H91.0516Z" fill="#470D21"/>
<path d="M38.4877 21.1855L41.3295 20.0952L46.4447 18.4598L50.9916 17.9146L55.5384 17.9146L56.3124 22.5171L52.2903 22.3501L48.8676 22.8473L43.7459 23.9131L39.491 25.73L38.4877 21.1855Z" fill="#D67D3E"/>
<path d="M46.9581 6.37279C47.0165 6.38205 47.057 6.43771 47.0486 6.49712C46.8834 7.67245 46.6786 9.65391 46.6023 11.7744C46.5259 13.8964 46.5785 16.1497 46.9245 17.8724C46.9364 17.9315 46.8992 17.9885 46.8415 17.9999C46.7837 18.0113 46.7273 17.9726 46.7154 17.9136C46.3642 16.1648 46.3124 13.8906 46.389 11.7637C46.4656 9.63511 46.6711 7.64601 46.8373 6.4636C46.8457 6.40419 46.8998 6.36353 46.9581 6.37279Z" fill="#470D21"/>
<path d="M35.0521 8.03179C35.1105 8.02428 35.1644 8.06656 35.1725 8.12621C35.3991 9.79831 36.5396 13.8102 39.2758 16.4597C39.3188 16.5013 39.321 16.5702 39.2807 16.6136C39.2404 16.657 39.1728 16.6584 39.1298 16.6167C36.3447 13.9198 35.1913 9.85259 34.9611 8.1534C34.953 8.09375 34.9938 8.0393 35.0521 8.03179Z" fill="#470D21"/>
<path d="M44.5182 8.2602C44.5768 8.25436 44.6295 8.29813 44.636 8.35797C44.7546 9.457 44.9812 11.2099 45.2756 12.8952C45.571 14.5856 45.9319 16.1916 46.315 17.0077C46.3406 17.0622 46.3183 17.127 46.2652 17.1524C46.2121 17.1778 46.1483 17.1543 46.1227 17.0998C45.7248 16.2522 45.36 14.6165 45.0655 12.9308C44.7701 11.2398 44.5428 9.48197 44.4238 8.37914C44.4174 8.3193 44.4596 8.26605 44.5182 8.2602Z" fill="#470D21"/>
<path d="M55.5879 11.0602C55.6354 11.0965 55.6454 11.1648 55.6104 11.2127C55.1488 11.8441 54.4383 12.8956 53.8089 13.9953C53.1771 15.0991 52.6358 16.2368 52.5 17.0453C52.49 17.1044 52.4349 17.1435 52.3768 17.1327C52.3187 17.1218 52.2796 17.0651 52.2896 17.0059C52.4325 16.1549 52.9926 14.9873 53.6242 13.8838C54.2582 12.7761 54.9732 11.7179 55.4387 11.0812C55.4737 11.0333 55.5405 11.0239 55.5879 11.0602Z" fill="#470D21"/>
<path fill-rule="evenodd" clip-rule="evenodd" d="M59.798 4.84411C58.8578 3.15273 57.0863 1.68037 53.8826 1.40878C52.4067 0.210743 48.8339 -1.11983 44.703 1.56974C42.9041 0.907669 39.2458 0.772434 36.0284 4.1806C35.2645 4.19159 34.3863 4.4229 33.5267 4.82698C32.5644 5.27938 31.5897 5.96475 30.7816 6.86275C29.1508 8.67494 28.2042 11.3561 29.4138 14.6482C29.856 15.8517 31.5804 18.4038 35.0655 19.6985C37.1384 20.5112 37.7759 22.0991 37.8487 22.6834C37.8526 22.7141 37.8589 22.7443 37.8677 22.7739C38.3913 24.5292 38.6905 26.0355 38.7726 26.5537C38.7833 26.6213 38.8064 26.6863 38.8405 26.7454C38.9999 27.0212 39.2912 27.2459 39.6466 27.42C40.0143 27.6001 40.5018 27.7517 41.1241 27.8507C42.3683 28.0485 44.2002 28.0436 46.8061 27.5862C50.0215 27.0219 52.4315 26.4972 54.1461 25.9195C55.8289 25.3526 56.9819 24.692 57.4915 23.7548C57.5461 23.6545 57.5678 23.5388 57.5535 23.4243C57.5234 23.1828 57.4133 22.7402 57.2876 22.2458L57.2121 21.9497L57.2118 21.9486L57.2115 21.9474C57.097 21.4988 56.9677 20.9923 56.8442 20.4701C56.6925 19.8282 56.5524 19.174 56.4624 18.5916C56.3703 17.9958 56.3389 17.5248 56.3775 17.2268C56.3906 17.1251 56.4471 16.9473 56.574 16.6823C56.6964 16.4269 56.8661 16.127 57.0726 15.7906C57.4274 15.2129 57.871 14.5593 58.3325 13.8794L58.5651 13.5364C59.1028 12.7426 59.6476 11.9258 60.0589 11.1996C60.2648 10.8362 60.4439 10.484 60.5732 10.16C60.699 9.84471 60.7952 9.5138 60.7978 9.20459C60.8049 8.3468 60.7318 6.52401 59.798 4.84411ZM46.4278 2.33652C46.2976 2.23749 46.1303 2.15307 45.9661 2.08236C49.4296 0.194271 52.2429 1.42069 53.2808 2.30422C53.3296 2.37548 53.3781 2.44564 53.4261 2.51508C54.036 3.39773 54.5673 4.16649 54.707 5.65356C54.7351 5.95315 54.9957 6.17574 55.2891 6.15074C55.5825 6.12574 55.7975 5.86261 55.7694 5.56303C55.6451 4.24026 55.239 3.35842 54.7837 2.62507C57.0134 3.04633 58.2085 4.18013 58.8711 5.37216C59.6618 6.79456 59.7372 8.37918 59.7306 9.1819C59.7297 9.28782 59.6915 9.46934 59.5839 9.7389C59.4798 9.99972 59.3265 10.3048 59.1332 10.6462C58.746 11.3297 58.2246 12.1129 57.6846 12.9102L57.455 13.2486C56.9947 13.9267 56.5349 14.604 56.1661 15.2046C55.9505 15.5557 55.7593 15.8913 55.614 16.1947C55.4732 16.4885 55.3553 16.7927 55.3193 17.0714C55.2953 17.2572 55.2896 17.4656 55.2976 17.6882C55.2179 17.6726 55.1365 17.658 55.0536 17.6444C55.1094 16.9705 55.3025 16.1465 55.5338 15.3603C55.7959 14.4697 56.1042 13.637 56.3077 13.1435C56.3305 13.0883 56.3048 13.0242 56.2504 13.0003C56.1961 12.9764 56.1335 13.0018 56.1108 13.057C55.9047 13.5568 55.5938 14.3967 55.3293 15.2954C55.0985 16.0798 54.9009 16.9162 54.8419 17.6121C53.9008 17.4799 52.7767 17.4628 51.5669 17.5317C51.0283 17.5623 50.4705 17.6101 49.9014 17.6731C50.376 15.8714 51.5837 13.5821 52.1518 12.627C52.1822 12.5759 52.1659 12.5088 52.1154 12.4771C52.0649 12.4455 51.9993 12.4613 51.9689 12.5124C51.3902 13.4853 50.1404 15.8525 49.6733 17.6991C49.5962 17.7081 49.5189 17.7174 49.4414 17.7269C49.6323 16.4558 50.132 14.9308 50.6928 13.5166C51.2842 12.025 51.9401 10.6646 52.363 9.8689C52.3909 9.81631 52.3715 9.75005 52.3196 9.72089C52.2677 9.69174 52.203 9.71073 52.175 9.76331C51.7487 10.5655 51.0893 11.9332 50.4947 13.4328C49.9232 14.8743 49.4086 16.445 49.2211 17.7548C48.2425 17.8813 47.2403 18.0489 46.2533 18.2476C46.1452 18.2694 46.0373 18.2915 45.9297 18.314C45.509 17.5842 45.0586 16.423 44.6562 15.2252C44.2143 13.9098 43.8346 12.563 43.6201 11.7253C43.6052 11.6669 43.5469 11.6314 43.4898 11.6459C43.4328 11.6604 43.3987 11.7195 43.4136 11.7778C43.6292 12.62 44.0105 13.972 44.4544 15.2935C44.8449 16.4561 45.2871 17.605 45.7106 18.3603C44.4054 18.6396 43.1368 18.9713 41.9963 19.3322C41.7524 19.0565 41.4451 18.6444 41.0978 18.139C40.6492 17.4862 40.1394 16.686 39.6217 15.8421C38.5865 14.1543 37.5225 12.2952 36.8589 11.0987C36.8297 11.0461 36.7645 11.027 36.7133 11.0562C36.6621 11.0853 36.6442 11.1515 36.6734 11.2041C37.3381 12.4027 38.4039 14.2647 39.4412 15.9559C39.9598 16.8015 40.4719 17.6053 40.9235 18.2625C41.2409 18.7244 41.5312 19.118 41.7746 19.4032C41.7318 19.4171 41.6891 19.4311 41.6466 19.4451C41.5932 19.3462 41.5231 19.2336 41.4432 19.1138C41.2995 18.8982 41.1163 18.6478 40.9203 18.3915C40.5283 17.8788 40.0818 17.338 39.7902 16.9965C39.7513 16.9508 39.6838 16.9456 39.6396 16.9848C39.5954 17.0239 39.5911 17.0927 39.63 17.1383C39.9198 17.4778 40.3636 18.0153 40.7526 18.5241C40.9472 18.7786 41.1272 19.0247 41.2672 19.2347C41.3376 19.3404 41.396 19.4342 41.4408 19.5137C41.3687 19.538 41.2972 19.5625 41.2264 19.587C40.7411 19.7553 40.2833 19.9293 39.8624 20.1073C39.7579 19.9623 39.623 19.8034 39.4701 19.6384C39.2404 19.3906 38.9647 19.1235 38.6778 18.8606C38.1038 18.3348 37.4807 17.8224 37.0816 17.5109C37.0346 17.4741 36.9676 17.4829 36.9322 17.5304C36.8967 17.578 36.9061 17.6464 36.9532 17.6832C37.3487 17.992 37.9673 18.5007 38.5362 19.0218C38.8207 19.2824 39.0917 19.5451 39.3158 19.7869C39.4521 19.934 39.5692 20.0712 39.661 20.1941C39.5659 20.2357 39.473 20.2776 39.3822 20.3197C39.3709 20.2998 39.3589 20.2799 39.3464 20.2601C39.2523 20.1117 39.1172 19.9526 38.9537 19.7877C38.6264 19.4577 38.1736 19.0931 37.6735 18.7299C36.6727 18.0028 35.469 17.2716 34.6658 16.8201C34.614 16.791 34.5492 16.8099 34.5213 16.8625C34.4933 16.9151 34.5127 16.9813 34.5646 17.0105C35.3633 17.4594 36.5592 18.1861 37.5512 18.9067C38.0475 19.2673 38.4894 19.6239 38.8046 19.9416C38.9623 20.1006 39.0853 20.247 39.1675 20.3767C39.1749 20.3884 39.182 20.4 39.1887 20.4113C38.8404 20.5796 38.5285 20.7503 38.2604 20.9221C37.7304 20.0988 36.8383 19.2309 35.4327 18.681L35.4239 18.6777C32.248 17.4993 30.7494 15.1938 30.4127 14.2773C29.3627 11.4196 30.1729 9.159 31.5719 7.60428C32.2787 6.81882 33.1372 6.21446 33.9833 5.81668C34.4015 5.62008 34.8083 5.47783 35.1847 5.38762C35.1738 5.40784 35.1631 5.42817 35.1524 5.44863C34.9256 5.88329 34.7037 6.43234 34.6838 6.96401C34.6725 7.26425 34.9022 7.51996 35.1967 7.53516C35.4912 7.55035 35.739 7.31928 35.7503 7.01904C35.761 6.73372 35.8929 6.35834 36.0959 5.96937C36.2888 5.59975 36.516 5.27385 36.6635 5.08975C39.7329 1.71642 43.1858 2.07829 44.5361 2.66705C44.7127 2.76615 44.9638 2.85798 45.1654 2.93173L45.2614 2.96701C45.543 3.07149 45.7209 3.14878 45.7965 3.20631C46.0342 3.3871 46.3681 3.33896 46.5425 3.09877C46.7168 2.85859 46.6654 2.51732 46.4278 2.33652ZM38.5301 21.3956C38.5711 21.4778 38.6084 21.5588 38.6424 21.6381C39.3922 21.1937 40.4416 20.7597 41.6512 20.362C43.1288 19.8761 44.8687 19.437 46.6444 19.0971C48.4201 18.7572 50.2365 18.5155 51.867 18.4264C53.1895 18.3541 54.4035 18.3812 55.3781 18.5438C55.3644 18.4454 55.352 18.3476 55.3411 18.2511C54.3673 18.0397 53.0699 17.9917 51.6032 18.0751C49.9676 18.1682 48.1431 18.4233 46.3628 18.7817C44.5826 19.1401 42.8518 19.6006 41.4037 20.1026C40.189 20.5238 39.1918 20.9679 38.5301 21.3956ZM55.8068 20.7129C55.6818 20.1841 55.5612 19.6334 55.4686 19.1113C54.53 18.9323 53.2958 18.8937 51.9021 18.9699C50.2996 19.0575 48.5069 19.2956 46.7491 19.6321C44.9914 19.9686 43.2735 20.4025 41.8206 20.8803C40.5651 21.2931 39.5246 21.7332 38.8269 22.1625C38.861 22.2877 38.8853 22.4044 38.9008 22.5104C39.1159 23.2346 39.2941 23.9177 39.436 24.5115C40.1676 24.0738 41.2004 23.6496 42.3923 23.2629C43.8808 22.78 45.6451 22.347 47.443 22.0173C49.2408 21.6876 51.0777 21.4602 52.7115 21.3906C53.9514 21.3378 55.0887 21.375 56.0074 21.5337C55.9411 21.2695 55.8731 20.9932 55.8068 20.7129ZM42.5597 23.7818C41.2828 24.1961 40.2387 24.6396 39.5652 25.0715C39.6056 25.2532 39.6418 25.4225 39.6736 25.5774C40.3806 25.0435 41.3858 24.5583 42.5452 24.1333C44.0162 23.5941 45.7702 23.1395 47.561 22.8061C49.3522 22.4726 51.1866 22.2591 52.8195 22.2042C54.1104 22.1608 55.29 22.216 56.2265 22.3963L56.1545 22.1138C55.2643 21.9298 54.0838 21.8772 52.7404 21.9345C51.1358 22.0028 49.3233 22.2267 47.5437 22.553C45.7641 22.8794 44.0226 23.3072 42.5597 23.7818ZM39.7902 26.1802L39.8023 26.2495C39.8108 26.2573 39.8208 26.266 39.8324 26.2756L39.8499 26.2895C40.809 26.5553 42.692 26.8065 45.8464 26.3766C48.3837 26.0308 50.9752 25.4676 52.9894 24.816C53.9975 24.49 54.8522 24.1446 55.4809 23.7977C55.7954 23.6242 56.0464 23.4541 56.2302 23.2909C56.3001 23.2289 56.358 23.1698 56.4052 23.1141C56.3953 23.0723 56.3847 23.0281 56.3734 22.9815C55.4695 22.7741 54.2435 22.7012 52.8437 22.7482C51.2407 22.8021 49.4326 23.0121 47.6631 23.3416C45.8933 23.6711 44.1685 24.1189 42.7311 24.6458C41.4489 25.1159 40.4222 25.6395 39.7902 26.1802Z" fill="#470D21"/>
</svg>
